<?xml version="1.0" standalone="no"?>
<!DOCTYPE svg PUBLIC "-//W3C//DTD SVG 20010904//EN"
 "http://www.w3.org/TR/2001/REC-SVG-20010904/DTD/svg10.dtd">
<svg version="1.0" xmlns="http://www.w3.org/2000/svg"
 width="244.000000pt" height="244.000000pt" viewBox="0 0 244.000000 244.000000"
 preserveAspectRatio="xMidYMid meet">
<metadata>
Created by potrace 1.14, written by Peter Selinger 2001-2017
</metadata>
<g transform="translate(0.000000,244.000000) scale(0.100000,-0.100000)"
fill="#000000" stroke="none">
<path d="M1048 2098 c-82 -38 -142 -81 -221 -157 -83 -80 -124 -134 -170 -226
-57 -114 -91 -290 -66 -337 7 -13 6 -18 -2 -18 -7 0 -5 -8 6 -20 17 -18 17
-20 1 -20 -13 0 -15 -4 -7 -19 6 -10 8 -21 5 -23 -3 -3 1 -33 9 -67 l14 -62
-74 -43 c-139 -81 -239 -181 -296 -296 -28 -57 -32 -74 -32 -150 0 -96 12
-127 71 -184 39 -37 138 -93 225 -125 186 -70 421 -68 587 5 23 10 42 24 42
31 0 6 5 15 12 19 7 4 8 3 4 -4 -4 -7 -2 -12 3 -12 7 0 12 26 12 63 l2 62 10
-47 c11 -49 27 -65 27 -26 0 17 3 19 12 10 17 -17 28 -15 28 4 0 8 4 13 9 9 6
-3 31 14 57 38 l46 44 75 -43 c278 -158 559 -142 656 40 20 37 22 54 20 171
-2 186 -48 343 -141 477 -44 64 -151 168 -172 168 -5 0 -10 5 -10 10 0 6 -11
10 -25 10 -18 0 -23 4 -19 15 5 13 2 14 -21 5 -15 -6 -42 -20 -59 -31 -26 -17
-25 -15 8 15 39 36 35 47 -7 24 -20 -10 -21 -10 -8 6 8 9 12 18 10 19 -11 9
-79 37 -115 47 l-41 12 -6 122 c-9 201 -62 343 -163 435 -93 85 -188 101 -296
49z m232 -13 c44 -23 120 -113 150 -178 42 -90 60 -168 67 -294 6 -111 6 -113
-16 -113 -19 0 -21 5 -21 63 -1 112 -30 248 -71 330 -56 111 -159 205 -229
208 l-25 1 25 7 c27 8 78 -3 120 -24z m-73 -15 c131 -59 225 -246 240 -477 5
-82 4 -93 -10 -93 -19 0 -23 17 -31 111 -9 92 -31 172 -70 254 -59 120 -129
185 -226 211 l-45 13 50 0 c29 0 68 -8 92 -19z m-77 -16 c135 -40 248 -237
266 -466 6 -68 5 -78 -10 -78 -9 0 -16 3 -16 8 0 30 -31 186 -45 227 -61 176
-180 303 -287 306 -28 0 -30 2 -13 9 29 13 46 12 105 -6z m-11 -43 c109 -56
207 -239 229 -428 8 -66 7 -73 -9 -73 -14 0 -19 11 -24 48 -10 77 -62 230 -99
291 -60 98 -155 170 -226 171 -20 0 -22 2 -10 11 21 14 92 3 139 -20z m-54
-28 c45 -22 102 -81 140 -144 38 -62 89 -207 98 -282 6 -41 4 -48 -9 -45 -11
2 -23 31 -39 91 -47 182 -150 330 -257 372 -26 9 -45 22 -42 27 7 11 69 0 109
-19z m-34 -41 c25 -16 62 -49 83 -73 47 -55 109 -183 130 -270 20 -80 20 -89
2 -89 -8 0 -24 33 -41 88 -15 48 -41 114 -58 147 -40 75 -131 169 -185 191
-23 9 -42 20 -42 25 0 20 68 8 111 -19z m-36 -42 c75 -46 148 -154 190 -279
14 -42 25 -84 25 -94 0 -34 -27 -16 -39 26 -40 135 -140 281 -226 331 -44 26
-52 36 -39 49 7 7 49 -8 89 -33z m-46 -34 c74 -47 148 -153 196 -280 29 -77
30 -89 10 -84 -9 2 -31 38 -49 80 -45 104 -102 184 -167 237 -81 66 -74 100
10 47z m-40 -41 c48 -25 120 -115 167 -210 47 -96 52 -115 31 -115 -7 0 -25
26 -41 58 -51 104 -134 207 -193 241 -10 5 -14 15 -10 25 8 20 11 20 46 1z
m19 -93 c56 -57 107 -132 137 -204 14 -36 14 -38 -2 -38 -12 0 -30 23 -53 67
-19 36 -63 96 -97 132 -58 61 -79 101 -52 101 6 0 36 -26 67 -58z m-201 16
c-3 -8 -6 -5 -6 6 -1 11 2 17 5 13 3 -3 4 -12 1 -19z m-20 -40 c-3 -8 -6 -5
-6 6 -1 11 2 17 5 13 3 -3 4 -12 1 -19z m202 -34 c66 -72 129 -183 111 -194
-9 -6 -25 10 -53 53 -22 34 -61 85 -88 114 -32 34 -47 57 -43 67 10 25 18 20
73 -40z m17 -106 c24 -31 48 -68 54 -82 8 -23 7 -26 -10 -26 -11 0 -20 4 -20
9 0 5 -27 44 -60 85 -33 42 -60 86 -60 98 l0 21 26 -24 c14 -13 46 -49 70 -81z
m-43 -25 c59 -78 70 -100 54 -106 -24 -9 -127 140 -110 157 10 9 9 10 56 -51z
m-8 -70 c24 -31 32 -50 25 -57 -6 -6 -16 -3 -30 9 -23 20 -26 14 -8 -15 14
-21 6 -36 -12 -25 -8 5 -10 21 -7 41 3 19 1 36 -4 39 -9 6 -13 55 -4 55 2 0
20 -21 40 -47z m392 -19 c-3 -3 -12 -4 -19 -1 -8 3 -5 6 6 6 11 1 17 -2 13 -5z
m283 -4 c0 -5 -2 -10 -4 -10 -3 0 -8 5 -11 10 -3 6 -1 10 4 10 6 0 11 -4 11
-10z m-325 -10 c-3 -5 -11 -10 -16 -10 -6 0 -7 5 -4 10 3 6 11 10 16 10 6 0 7
-4 4 -10z m85 0 c0 -5 -4 -10 -10 -10 -5 0 -10 5 -10 10 0 6 5 10 10 10 6 0
10 -4 10 -10z m310 0 c0 -5 -4 -10 -10 -10 -5 0 -10 5 -10 10 0 6 5 10 10 10
6 0 10 -4 10 -10z m-350 -10 c0 -5 -8 -10 -17 -10 -15 0 -16 2 -3 10 19 12 20
12 20 0z m314 -5 c-4 -8 -8 -15 -10 -15 -2 0 -4 7 -4 15 0 8 4 15 10 15 5 0 7
-7 4 -15z m-397 -1 c-3 -3 -12 -4 -19 -1 -8 3 -5 6 6 6 11 1 17 -2 13 -5z
m168 -4 c-3 -5 -10 -10 -16 -10 -5 0 -9 5 -9 10 0 6 7 10 16 10 8 0 12 -4 9
-10z m192 -12 c-3 -8 -6 -5 -6 6 -1 11 2 17 5 13 3 -3 4 -12 1 -19z m93 3 c-5
-11 -15 -23 -22 -27 -7 -5 -8 -2 -3 7 21 37 44 55 25 20z m-410 5 c0 -3 -4 -8
-10 -11 -5 -3 -10 -1 -10 4 0 6 5 11 10 11 6 0 10 -2 10 -4z m80 -6 c0 -5 -4
-10 -10 -10 -5 0 -10 5 -10 10 0 6 5 10 10 10 6 0 10 -4 10 -10z m-40 -10 c0
-5 -5 -10 -11 -10 -5 0 -7 5 -4 10 3 6 8 10 11 10 2 0 4 -4 4 -10z m125 0 c-3
-5 -10 -10 -16 -10 -5 0 -9 5 -9 10 0 6 7 10 16 10 8 0 12 -4 9 -10z m-45 -15
c-7 -9 -15 -13 -17 -11 -7 7 7 26 19 26 6 0 6 -6 -2 -15z m-48 -17 c-7 -7 -12
-8 -12 -2 0 6 3 14 7 17 3 4 9 5 12 2 2 -3 -1 -11 -7 -17z m138 13 c0 -12 -20
-25 -27 -18 -7 7 6 27 18 27 5 0 9 -4 9 -9z m-243 -7 c-3 -3 -12 -4 -19 -1 -8
3 -5 6 6 6 11 1 17 -2 13 -5z m193 -9 c0 -8 -7 -15 -16 -15 -14 0 -14 3 -4 15
7 8 14 15 16 15 2 0 4 -7 4 -15z m-150 -5 c0 -5 -8 -10 -17 -10 -15 0 -16 2
-3 10 19 12 20 12 20 0z m30 6 c0 -3 -4 -8 -10 -11 -5 -3 -10 -1 -10 4 0 6 5
11 10 11 6 0 10 -2 10 -4z m-150 -10 c0 -3 -4 -8 -10 -11 -5 -3 -10 -1 -10 4
0 6 5 11 10 11 6 0 10 -2 10 -4z m230 -6 c0 -5 -4 -10 -10 -10 -5 0 -10 5 -10
10 0 6 5 10 10 10 6 0 10 -4 10 -10z m120 1 c0 -12 -20 -25 -27 -18 -7 7 6 27
18 27 5 0 9 -4 9 -9z m-160 -11 c0 -5 -4 -10 -10 -10 -5 0 -10 5 -10 10 0 6 5
10 10 10 6 0 10 -4 10 -10z m120 -5 c0 -8 -7 -15 -15 -15 -26 0 -18 20 13 29
1 1 2 -6 2 -14z m-150 1 c0 -2 -7 -6 -15 -10 -8 -3 -15 -1 -15 4 0 6 7 10 15
10 8 0 15 -2 15 -4z m110 -5 c0 -12 -20 -25 -27 -18 -7 7 6 27 18 27 5 0 9 -4
9 -9z m-40 -11 c0 -5 -4 -10 -10 -10 -5 0 -10 5 -10 10 0 6 5 10 10 10 6 0 10
-4 10 -10z m158 -8 c2 -7 -3 -12 -12 -12 -9 0 -16 7 -16 16 0 17 22 14 28 -4z
m-198 -2 c0 -5 -4 -10 -10 -10 -5 0 -10 5 -10 10 0 6 5 10 10 10 6 0 10 -4 10
-10z m154 -5 c-4 -8 -12 -15 -20 -15 -8 0 -11 6 -8 15 4 8 12 15 20 15 8 0 11
-6 8 -15z m-224 -5 c0 -5 -4 -10 -10 -10 -5 0 -10 5 -10 10 0 6 5 10 10 10 6
0 10 -4 10 -10z m178 -2 c-2 -6 -10 -14 -16 -16 -7 -2 -10 2 -6 12 7 18 28 22
22 4z m-38 -8 c0 -5 -4 -10 -10 -10 -5 0 -10 5 -10 10 0 6 5 10 10 10 6 0 10
-4 10 -10z m-70 -10 c0 -5 -4 -10 -10 -10 -5 0 -10 5 -10 10 0 6 5 10 10 10 6
0 10 -4 10 -10z m35 0 c-3 -5 -10 -10 -16 -10 -5 0 -9 5 -9 10 0 6 7 10 16 10
8 0 12 -4 9 -10z m173 -2 c-4 -10 -58 -32 -58 -23 0 2 7 11 16 19 18 19 47 21
42 4z m-658 -7 c0 -5 3 -18 7 -28 6 -17 5 -17 -15 1 -26 22 -28 36 -7 36 8 0
15 -4 15 -9z m590 -6 c0 -8 -7 -15 -16 -15 -14 0 -14 3 -4 15 7 8 14 15 16 15
2 0 4 -7 4 -15z m-820 1 c0 -11 -19 -15 -25 -6 -3 5 1 10 9 10 9 0 16 -2 16
-4z m196 -13 c17 -23 17 -33 1 -33 -14 0 -39 35 -30 44 10 9 15 7 29 -11z
m554 7 c0 -5 -7 -10 -16 -10 -8 0 -12 5 -9 10 3 6 10 10 16 10 5 0 9 -4 9 -10z
m30 0 c0 -5 -4 -10 -10 -10 -5 0 -10 5 -10 10 0 6 5 10 10 10 6 0 10 -4 10
-10z m-760 -20 c0 -5 -5 -10 -11 -10 -5 0 -7 5 -4 10 3 6 8 10 11 10 2 0 4 -4
4 -10z m860 -6 c0 -11 -5 -14 -16 -10 -9 3 -21 6 -27 6 -16 0 14 20 31 20 6 0
12 -7 12 -16z m-712 -12 c2 -7 -3 -12 -12 -12 -9 0 -16 7 -16 16 0 17 22 14
28 -4z m-123 -2 c-3 -5 -11 -10 -16 -10 -6 0 -7 5 -4 10 3 6 11 10 16 10 6 0
7 -4 4 -10z m195 -20 c0 -5 -6 -10 -14 -10 -8 0 -18 5 -21 10 -3 6 3 10 14 10
12 0 21 -4 21 -10z m-45 -10 c3 -5 -1 -10 -9 -10 -8 0 -18 5 -21 10 -3 6 1 10
9 10 8 0 18 -4 21 -10z m-40 -10 c3 -5 -1 -10 -9 -10 -8 0 -18 5 -21 10 -3 6
1 10 9 10 8 0 18 -4 21 -10z m105 -10 c0 -5 -4 -10 -9 -10 -6 0 -13 5 -16 10
-3 6 1 10 9 10 9 0 16 -4 16 -10z m741 -5 l34 -14 -37 -1 c-27 0 -38 4 -38 15
0 18 0 18 41 0z m-776 -5 c3 -5 -1 -10 -9 -10 -8 0 -18 5 -21 10 -3 6 1 10 9
10 8 0 18 -4 21 -10z m-47 -15 c-2 -6 -7 -9 -12 -7 -5 2 -12 -2 -16 -9 -6 -8
-13 -8 -26 0 -18 10 -18 10 3 11 12 0 25 5 28 11 8 12 28 7 23 -6z m92 -5 c0
-5 -2 -10 -4 -10 -3 0 -8 5 -11 10 -3 6 -1 10 4 10 6 0 11 -4 11 -10z m-25
-10 c3 -5 -1 -10 -9 -10 -9 0 -16 5 -16 10 0 6 4 10 9 10 6 0 13 -4 16 -10z
m834 1 c18 -12 5 -18 -56 -26 -42 -5 -53 -3 -53 8 0 7 3 17 7 20 9 10 86 8
102 -2z m-1079 -14 c0 -8 -35 -37 -77 -65 -222 -146 -334 -342 -287 -502 l13
-45 -19 23 c-50 61 -50 172 0 277 37 77 147 199 225 249 125 81 145 90 145 63z
m210 3 c0 -5 -4 -10 -10 -10 -5 0 -10 5 -10 10 0 6 5 10 10 10 6 0 10 -4 10
-10z m-30 -20 c0 -5 -4 -10 -9 -10 -6 0 -13 5 -16 10 -3 6 1 10 9 10 9 0 16
-4 16 -10z m90 0 c0 -5 -4 -10 -9 -10 -6 0 -13 5 -16 10 -3 6 1 10 9 10 9 0
16 -4 16 -10z m879 -4 l24 -14 -22 -7 c-29 -9 -170 -22 -176 -16 -22 21 19 35
140 49 6 1 21 -5 34 -12z m-1009 -12 c0 -8 -4 -12 -10 -9 -5 3 -10 10 -10 16
0 5 5 9 10 9 6 0 10 -7 10 -16z m90 -2 c-8 -3 -18 -9 -21 -15 -4 -5 -12 -6
-19 -2 -14 9 29 35 45 27 5 -3 2 -8 -5 -10z m-210 -12 c0 -4 -28 -29 -62 -53
-122 -88 -200 -177 -250 -283 -27 -57 -32 -81 -33 -139 0 -47 6 -82 17 -105
l18 -35 -25 30 c-36 44 -48 89 -43 165 10 130 121 281 286 390 69 45 92 53 92
30z m937 -2 c-3 -8 -6 -5 -6 6 -1 11 2 17 5 13 3 -3 4 -12 1 -19z m-667 2 c0
-5 -4 -10 -10 -10 -5 0 -10 5 -10 10 0 6 5 10 10 10 6 0 10 -4 10 -10z m-119
-13 c-1 -12 -15 -9 -19 4 -3 6 1 10 8 8 6 -3 11 -8 11 -12z m89 3 c0 -5 -4
-10 -10 -10 -5 0 -10 5 -10 10 0 6 5 10 10 10 6 0 10 -4 10 -10z m949 -4 c10
-12 6 -17 -26 -26 -21 -6 -77 -14 -125 -17 -77 -5 -88 -4 -88 11 0 9 6 16 13
17 58 4 116 11 146 18 54 13 67 12 80 -3z m-1169 -29 c-1 -7 -28 -32 -61 -57
-103 -76 -193 -188 -232 -288 -19 -46 -31 -136 -19 -128 4 2 9 19 10 38 3 55
44 146 98 216 51 67 188 192 212 192 27 0 8 -26 -69 -98 -44 -41 -98 -102
-121 -135 -71 -104 -101 -228 -75 -305 8 -23 11 -42 6 -42 -15 0 -39 44 -46
83 -3 20 -9 37 -13 37 -10 0 -2 -57 12 -85 5 -11 -2 -7 -16 10 -105 124 -2
364 230 534 65 47 84 54 84 28z m105 13 c3 -5 -1 -10 -9 -10 -9 0 -16 5 -16
10 0 6 4 10 9 10 6 0 13 -4 16 -10z m85 0 c0 -5 -2 -10 -4 -10 -3 0 -8 5 -11
10 -3 6 -1 10 4 10 6 0 11 -4 11 -10z m-25 -10 c3 -5 -1 -10 -9 -10 -9 0 -16
5 -16 10 0 6 4 10 9 10 6 0 13 -4 16 -10z m75 0 c0 -5 -2 -10 -4 -10 -3 0 -8
5 -11 10 -3 6 -1 10 4 10 6 0 11 -4 11 -10z m657 -12 c-3 -8 -6 -5 -6 6 -1 11
2 17 5 13 3 -3 4 -12 1 -19z m-682 2 c3 -5 1 -10 -4 -10 -6 0 -11 5 -11 10 0
6 2 10 4 10 3 0 8 -4 11 -10z m1015 -11 c-12 -22 -121 -46 -223 -48 -73 -2
-87 0 -87 14 0 20 8 23 115 28 50 3 101 10 115 15 14 6 39 10 56 9 26 -2 30
-5 24 -18z m-1095 1 c3 -5 2 -10 -4 -10 -5 0 -13 5 -16 10 -3 6 -2 10 4 10 5
0 13 -4 16 -10z m55 -6 c0 -3 -7 -12 -16 -21 -11 -12 -18 -13 -27 -4 -8 8 -7
11 6 11 9 0 17 5 17 10 0 6 5 10 10 10 6 0 10 -3 10 -6z m-80 -13 c0 -5 -6
-11 -13 -14 -8 -3 -14 1 -14 9 0 8 6 14 14 14 7 0 13 -4 13 -9z m757 -13 c-3
-8 -6 -5 -6 6 -1 11 2 17 5 13 3 -3 4 -12 1 -19z m402 -1 c9 -11 3 -17 -27
-30 -20 -9 -54 -21 -76 -26 -42 -11 -240 -10 -251 1 -19 19 13 28 98 29 56 0
118 7 157 18 84 23 85 23 99 8z m-1129 -17 c0 -5 -2 -10 -4 -10 -3 0 -8 5 -11
10 -3 6 -1 10 4 10 6 0 11 -4 11 -10z m677 -12 c-3 -8 -6 -5 -6 6 -1 11 2 17
5 13 3 -3 4 -12 1 -19z m518 13 c3 -5 2 -12 -3 -15 -5 -3 -9 1 -9 9 0 17 3 19
12 6z m-1293 -12 c2 -6 -25 -39 -60 -73 -147 -141 -223 -318 -189 -438 10 -39
-9 -36 -29 5 -23 43 -21 128 4 199 32 91 114 199 212 281 48 40 56 43 62 26z
m153 1 c3 -6 -1 -7 -9 -4 -18 7 -21 14 -7 14 6 0 13 -4 16 -10z m672 -12 c-3
-8 -6 -5 -6 6 -1 11 2 17 5 13 3 -3 4 -12 1 -19z m-702 2 c3 -5 1 -10 -4 -10
-6 0 -11 5 -11 10 0 6 2 10 4 10 3 0 8 -4 11 -10z m1143 -3 c25 -30 -101 -73
-221 -76 -113 -3 -189 8 -185 26 2 13 23 15 118 14 111 -1 192 12 236 37 25
15 39 15 52 -1z m-1243 -27 c4 -6 -22 -41 -57 -79 -116 -126 -173 -249 -166
-362 2 -41 -1 -59 -9 -59 -38 0 -46 115 -14 205 27 77 79 154 159 238 67 68
76 75 87 57z m755 6 c0 -3 -4 -8 -10 -11 -5 -3 -10 -1 -10 4 0 6 5 11 10 11 6
0 10 -2 10 -4z m17 -18 c-3 -8 -6 -5 -6 6 -1 11 2 17 5 13 3 -3 4 -12 1 -19z
m510 -5 c6 -17 -50 -50 -117 -70 -98 -29 -350 -13 -350 22 0 9 33 11 139 7
122 -4 147 -2 209 17 39 12 74 26 77 32 9 13 37 8 42 -8z m-587 -3 c0 -5 -4
-10 -10 -10 -5 0 -10 5 -10 10 0 6 5 10 10 10 6 0 10 -4 10 -10z m-60 -10 c0
-5 -4 -10 -10 -10 -5 0 -10 5 -10 10 0 6 5 10 10 10 6 0 10 -4 10 -10z m110
-5 c0 -8 -4 -15 -10 -15 -5 0 -7 7 -4 15 4 8 8 15 10 15 2 0 4 -7 4 -15z
m-720 -7 c0 -7 -14 -29 -30 -48 -49 -56 -115 -160 -139 -220 -12 -30 -25 -85
-28 -122 -7 -82 -29 -100 -39 -31 -16 110 49 255 170 381 51 53 66 62 66 40z
m550 8 c0 -3 -4 -8 -10 -11 -5 -3 -10 -1 -10 4 0 6 5 11 10 11 6 0 10 -2 10
-4z m77 -18 c-3 -8 -6 -5 -6 6 -1 11 2 17 5 13 3 -3 4 -12 1 -19z m117 7 c-4
-8 -8 -15 -10 -15 -2 0 -4 7 -4 15 0 8 4 15 10 15 5 0 7 -7 4 -15z m539 -9 c8
-19 -67 -70 -129 -89 -71 -21 -211 -19 -311 5 -65 15 -81 22 -76 35 4 11 14
13 42 8 103 -20 143 -23 221 -20 85 3 173 27 216 60 24 18 31 18 37 1z m-713
-6 c0 -5 -2 -10 -4 -10 -3 0 -8 5 -11 10 -3 6 -1 10 4 10 6 0 11 -4 11 -10z
m90 0 c0 -5 -5 -10 -11 -10 -5 0 -7 5 -4 10 3 6 8 10 11 10 2 0 4 -4 4 -10z
m-630 -21 c0 -5 -21 -37 -46 -71 -66 -89 -111 -188 -125 -274 -12 -77 -32 -98
-43 -46 -16 76 45 227 141 344 49 60 73 76 73 47z m500 11 c0 -5 -5 -10 -11
-10 -5 0 -7 5 -4 10 3 6 8 10 11 10 2 0 4 -4 4 -10z m70 6 c0 -3 -4 -8 -10
-11 -5 -3 -10 -1 -10 4 0 6 5 11 10 11 6 0 10 -2 10 -4z m90 0 c0 -3 -4 -8
-10 -11 -5 -3 -10 -1 -10 4 0 6 5 11 10 11 6 0 10 -2 10 -4z m-73 -28 c-3 -8
-6 -5 -6 6 -1 11 2 17 5 13 3 -3 4 -12 1 -19z m90 0 c-3 -8 -6 -5 -6 6 -1 11
2 17 5 13 3 -3 4 -12 1 -19z m-147 2 c0 -5 -4 -10 -10 -10 -5 0 -10 5 -10 10
0 6 5 10 10 10 6 0 10 -4 10 -10z m86 -17 c-10 -10 -19 5 -10 18 6 11 8 11 12
0 2 -7 1 -15 -2 -18z m625 -34 c-93 -84 -263 -97 -463 -38 -49 15 -65 24 -61
35 5 14 28 12 88 -8 17 -5 82 -12 146 -15 146 -7 236 16 298 75 12 11 15 11
23 0 6 -9 -4 -24 -31 -49z m-761 26 c-6 -7 -10 -17 -9 -21 1 -5 -2 -19 -6 -31
-8 -26 -25 -31 -25 -8 0 8 4 15 9 15 5 0 12 16 15 35 4 20 11 33 17 29 7 -4 6
-10 -1 -19z m67 3 c-3 -8 -6 -5 -6 6 -1 11 2 17 5 13 3 -3 4 -12 1 -19z m-549
-61 c-70 -104 -118 -223 -118 -289 0 -22 -5 -28 -21 -28 -20 0 -21 4 -16 59 5
65 43 157 98 238 48 71 71 95 83 83 6 -6 -3 -28 -26 -63z m652 57 c0 -8 -4
-12 -10 -9 -5 3 -10 10 -10 16 0 5 5 9 10 9 6 0 10 -7 10 -16z m-200 2 c0 -3
-4 -8 -10 -11 -5 -3 -10 -1 -10 4 0 6 5 11 10 11 6 0 10 -2 10 -4z m57 -18
c-3 -8 -6 -5 -6 6 -1 11 2 17 5 13 3 -3 4 -12 1 -19z m73 6 c0 -8 -5 -12 -10
-9 -6 4 -8 11 -5 16 9 14 15 11 15 -7z m94 1 c-4 -8 -8 -15 -10 -15 -2 0 -4 7
-4 15 0 8 4 15 10 15 5 0 7 -7 4 -15z m-64 -11 c0 -8 -5 -12 -10 -9 -6 4 -8
11 -5 16 9 14 15 11 15 -7z m666 -29 c-42 -64 -139 -106 -251 -106 -87 -1
-126 6 -230 37 -95 28 -114 39 -99 54 7 7 29 4 74 -10 190 -61 383 -47 476 34
41 36 57 32 30 -9z m-736 20 c0 -8 -2 -15 -4 -15 -2 0 -6 7 -10 15 -3 8 -1 15
4 15 6 0 10 -7 10 -15z m-485 -5 c4 -6 -6 -32 -22 -58 -46 -76 -75 -143 -87
-204 -10 -53 -26 -75 -45 -63 -14 8 8 106 38 170 32 70 92 165 103 165 4 0 10
-5 13 -10z m375 -6 c0 -8 -4 -12 -10 -9 -5 3 -10 10 -10 16 0 5 5 9 10 9 6 0
10 -7 10 -16z m206 -11 c-10 -10 -19 5 -10 18 6 11 8 11 12 0 2 -7 1 -15 -2
-18z m-136 1 c0 -8 -5 -12 -10 -9 -6 4 -8 11 -5 16 9 14 15 11 15 -7z m67 -6
c-3 -8 -6 -5 -6 6 -1 11 2 17 5 13 3 -3 4 -12 1 -19z m33 -10 c0 -18 -2 -20
-9 -8 -6 8 -7 18 -5 22 9 14 14 9 14 -14z m-541 -81 c-21 -39 -44 -96 -50
-125 -8 -33 -20 -57 -32 -63 -10 -6 -21 -9 -23 -6 -10 10 19 103 52 170 53
104 64 119 79 107 10 -8 4 -27 -26 -83z m361 67 c0 -8 -4 -12 -10 -9 -5 3 -10
13 -10 21 0 8 5 12 10 9 6 -3 10 -13 10 -21z m110 10 c0 -8 -5 -12 -10 -9 -6
4 -8 11 -5 16 9 14 15 11 15 -7z m770 1 c0 -27 -69 -92 -123 -116 -45 -21 -67
-24 -167 -23 -103 0 -125 4 -212 33 -111 38 -139 54 -122 71 8 8 24 5 58 -10
27 -11 89 -29 139 -39 168 -35 315 -11 387 64 39 40 40 41 40 20z m-927 -25
c-7 -26 -19 -34 -29 -19 -4 7 1 18 11 26 24 17 24 17 18 -7z m117 4 c0 -8 -4
-12 -10 -9 -5 3 -10 10 -10 16 0 5 5 9 10 9 6 0 10 -7 10 -16z m74 -5 c-3 -5
-10 -7 -15 -3 -5 3 -7 10 -3 15 3 5 10 7 15 3 5 -3 7 -10 3 -15z m-462 -75
c-16 -38 -34 -82 -39 -98 -5 -16 -20 -36 -32 -45 -23 -15 -23 -15 -16 19 8 38
57 151 81 189 11 15 19 20 26 13 6 -6 0 -33 -20 -78z m348 65 c0 -11 -4 -17
-10 -14 -5 3 -10 13 -10 21 0 8 5 14 10 14 6 0 10 -9 10 -21z m-46 2 c9 -14
-5 -41 -21 -41 -10 0 -13 6 -9 16 3 9 6 20 6 25 0 12 17 12 24 0z m118 -6 c0
-5 -5 -11 -11 -13 -6 -2 -11 4 -11 13 0 9 5 15 11 13 6 -2 11 -8 11 -13z m773
-29 c-21 -43 -74 -88 -136 -113 -58 -24 -209 -24 -299 0 -83 22 -222 87 -217
101 6 15 19 12 132 -30 87 -32 114 -37 212 -42 144 -6 206 12 272 77 25 26 48
45 49 44 2 -1 -4 -18 -13 -37z m-815 8 c0 -8 -4 -14 -10 -14 -5 0 -10 9 -10
21 0 11 5 17 10 14 6 -3 10 -13 10 -21z m-310 9 c0 -12 -52 -138 -62 -150 -6
-7 -16 -13 -24 -13 -11 0 -11 6 0 38 26 72 58 132 72 132 8 0 14 -3 14 -7z
m32 -57 c-14 -39 -47 -74 -58 -63 -3 3 6 30 20 61 17 38 29 54 39 50 12 -4 12
-11 -1 -48z m238 33 c0 -5 -7 -9 -15 -9 -15 0 -20 12 -9 23 8 8 24 -1 24 -14z
m-199 -32 c-24 -25 -32 -21 -20 10 6 15 13 21 24 16 15 -5 14 -8 -4 -26z
m1053 -9 c-74 -148 -277 -185 -516 -94 -97 36 -168 79 -159 95 7 10 23 6 75
-18 129 -59 200 -76 326 -76 108 0 119 2 174 30 32 16 71 44 85 62 33 41 36
41 15 1z m-630 -57 c28 -16 83 -40 121 -54 206 -72 376 -58 479 41 l38 37 -16
-31 c-57 -114 -232 -164 -417 -119 -88 22 -272 113 -277 138 -5 24 13 21 72
-12z m-134 -11 c0 -5 -4 -10 -10 -10 -5 0 -10 5 -10 10 0 6 5 10 10 10 6 0 10
-4 10 -10z m-40 -21 c0 -6 -4 -7 -10 -4 -5 3 -10 11 -10 16 0 6 5 7 10 4 6 -3
10 -11 10 -16z m-149 -111 l-11 -33 5 34 c3 18 6 50 7 70 l1 36 4 -37 c2 -20
-1 -51 -6 -70z m108 59 c1 -5 -3 -5 -9 -2 -5 3 -10 16 -9 28 0 21 1 21 9 2 5
-11 9 -24 9 -28z m29 18 c-3 -3 -9 2 -12 12 -6 14 -5 15 5 6 7 -7 10 -15 7
-18z m-171 -37 c-3 -8 -6 -5 -6 6 -1 11 2 17 5 13 3 -3 4 -12 1 -19z m-56 -81
c-10 -9 -11 -8 -5 6 3 10 9 15 12 12 3 -3 0 -11 -7 -18z m50 0 c-10 -9 -11 -8
-5 6 3 10 9 15 12 12 3 -3 0 -11 -7 -18z"/>
</g>
</svg>
